<?xml version="1.0" encoding="UTF-8"?>
<svg id="Artwork" xmlns="http://www.w3.org/2000/svg" viewBox="0 0 1616.59 1500">
  <defs>
    <style>
      .cls-1 {
        fill: #0f191f;
      }

      .cls-2 {
        fill: #026e85;
      }

      .cls-3 {
        fill: none;
      }

      .cls-4 {
        fill: #1a303c;
      }

      .cls-5 {
        fill: #00b6de;
      }

      .cls-6 {
        fill: #f6861f;
      }

      .cls-7 {
        fill: #006f86;
      }
    </style>
  </defs>
  <path class="cls-7" d="M1145.44,914.89c0-70.23-56.76-126.99-126.99-126.99s-127,56.76-127,126.99v44.34c0,70.59,56.76,127.35,127,127.35h8.87v-88.68h-8.87c-20.93,0-38.66-15.96-38.66-38.66h165.65v-44.34ZM972.97,909.46c-1.84-10.86,1.17-22.46,7.49-31.01,6.31-8.55,15.72-14.06,25.59-15.69,11.45-1.89,23.53,1.41,32.87,8.98,9.34,7.57,15.84,19.32,16.16,37.29,0,0-81.35,0-82.1.43Z"/>
  <g>
    <path class="cls-3" d="M526.33,874.55c-21.28,0-38.31,17.02-38.31,38.3s17.03,38.31,38.31,38.31,38.31-17.02,38.31-38.31-17.03-38.3-38.31-38.3Z"/>
    <path class="cls-3" d="M756.32,688.25c21.28,0,38.31-17.02,38.31-38.31s-17.03-38.3-38.31-38.3-38.31,17.02-38.31,38.3,17.03,38.31,38.31,38.31Z"/>
    <path class="cls-3" d="M574,425.09c21.28,0,38.31-17.02,38.31-38.31s-17.03-38.31-38.31-38.31-38.31,17.03-38.31,38.31,17.03,38.31,38.31,38.31Z"/>
    <path class="cls-3" d="M794.64,782.97v-12.06c-12.06,3.9-24.83,6.03-38.31,6.03-.72,0-1.44-.02-2.16-.03.18,10.58.05,21.16-.08,31.74-.63,48.32-1.25,96.65-4.45,145.82,1.12.73,2.25,1.45,3.36,2.18,30.22-60.16,66.09-117.27,102.96-173.68h-61.32Z"/>
    <path class="cls-3" d="M653.32,1035.44c5.48-22.43,11.33-45.5,13.02-57.74.96-9.41,1.91-18.81,2.85-28.2-5.17-3.45-10.48-6.99-15.86-10.59v96.52Z"/>
    <path class="cls-3" d="M1332.03,644.09c-.32-17.97-6.82-29.72-16.16-37.29-9.34-7.57-21.42-10.87-32.87-8.98-9.87,1.63-19.28,7.13-25.59,15.69-6.31,8.55-9.32,20.16-7.49,31.01.75-.43,82.1-.43,82.1-.43Z"/>
    <path class="cls-5" d="M694.58,723.62c3.77-8.53,10.84-16.15,19.96-18.11,11.56-2.49,23.52,4.84,29.8,14.87,6.27,10.03,7.98,22.2,8.86,33.99.56,7.5.84,15.02.97,22.54.72.01,1.44.03,2.16.03,13.48,0,26.25-2.13,38.31-6.03v12.06h61.32c8.28-12.67,16.6-25.3,24.93-37.92.79-1.21,1.6-2.42,2.44-3.62v-224.51h-88.68v12.06c-12.06-3.91-24.83-6.03-38.31-6.03-70.24,0-126.99,56.76-126.99,126.99,0,45.17,23.47,84.76,58.9,107.27.21-2.11.42-4.21.64-6.32.94-9.28,1.94-18.74,5.7-27.27ZM756.32,611.64c21.28,0,38.31,17.02,38.31,38.3s-17.03,38.31-38.31,38.31-38.31-17.02-38.31-38.31,17.03-38.3,38.31-38.3Z"/>
    <path class="cls-5" d="M922.74,739.04c6.58,8.7,7.71,20.56,5.53,31.25-2.06,10.09-6.76,19.41-11.56,28.54v44.44l122.38-140.83,56.04,69.88,68.82-55.35-66.68-83.72,45.04-52.14-67.04-57.12-69.88,80.88v-96.55c11.96,3.76,24.67,5.79,37.83,5.79h8.87v-88.67h-8.87c-18.6,0-34.88-14.5-37.83-32.74v-20.47h46.7v-88.68h-46.7v-74.87h-88.67v.74h-.49v74.14h-19.86v88.68h19.86v14.54c0,3.75.17,7.46.49,11.12v335.47c2.3,1.56,4.37,3.47,6.03,5.67Z"/>
    <path class="cls-5" d="M1590.77,466.91c-70.23,0-127.35,57.11-127.35,126.99v100.75c0,20.93-17.73,38.3-38.31,38.3h-8.87v88.69h8.87c69.88,0,127-56.76,127-126.99v-100.75c0-20.57,17.73-38.31,38.66-38.31h8.87v-88.67h-8.87Z"/>
    <path class="cls-5" d="M1299.11,732.94h-5.64c-20.93,0-38.67-15.96-38.67-38.66h165.66v-44.34c0-70.23-56.76-126.99-126.99-126.99-15.53,0-30.39,2.78-44.13,7.86v-125.22l90.45-90.45-63.14-63.14-71.65,72.01-72-72.01-63.15,63.14,90.81,90.45v144.02h54.9c-29.88,23.22-49.07,59.49-49.07,100.34v44.34c0,38.02,16.47,72.02,42.63,95.3,19.87-30.31,52.37-51.71,90-56.64ZM1257.41,613.5c6.31-8.55,15.72-14.06,25.59-15.69,11.45-1.89,23.53,1.41,32.87,8.98,9.34,7.57,15.84,19.32,16.16,37.29,0,0-81.35,0-82.1.43-1.84-10.86,1.17-22.46,7.49-31.01Z"/>
    <polygon class="cls-5" points="184.81 428.29 256.81 579.05 329.53 428.29 363.94 508.1 379.57 501.25 379.57 843.27 501.95 702.45 557.99 772.33 626.81 716.99 560.12 633.27 605.17 581.13 538.12 524.02 468.25 604.9 468.25 472.58 444.8 472.58 332.72 215.46 256.81 372.95 180.9 215.46 68.46 472.63 149.33 508.1 184.81 428.29"/>
    <path class="cls-5" d="M574,513.78c13.48,0,26.25-2.13,38.31-6.03v12.06h88.68V253.77h-88.68v12.06c-12.06-3.9-24.83-6.03-38.31-6.03-70.24,0-126.99,56.76-126.99,126.99s56.75,127,126.99,127ZM574,348.48c21.28,0,38.31,17.03,38.31,38.31s-17.03,38.31-38.31,38.31-38.31-17.02-38.31-38.31,17.03-38.31,38.31-38.31Z"/>
    <path class="cls-5" d="M753.18,386.78c0,70.24,57.11,127.35,127,127.35h8.87v-88.67h-8.87c-20.58,0-38.31-17.74-38.31-38.67v-14.54h47.18v-88.68h-47.18v-74.14h-88.68v74.14h-19.86v88.68h19.86v14.54Z"/>
    <polygon class="cls-7" points="209.15 899.03 133.24 741.53 20.8 998.7 101.67 1034.17 137.14 954.36 209.15 1105.12 281.87 954.36 316.27 1034.17 397.15 998.7 285.06 741.53 209.15 899.03"/>
    <path class="cls-2" d="M653.32,938.92c-47.3-31.59-100.85-67.49-126.98-85.48-11.06-7.61-12.87-19.6-7.27-28.96,4.95-8.28,15.09-14.21,26.13-5.64,1.67,1.29,28.61,20.35,38.28,26.88,16.58,11.19,41.61,27.69,69.83,46.13v-112.02h-88.68v12.06c-12.06-3.91-24.83-6.03-38.31-6.03-70.24,0-126.99,56.76-126.99,126.99s56.75,127,126.99,127c13.48,0,26.25-2.13,38.31-6.03v12.06h86.16c.82-3.44,1.67-6.93,2.52-10.44v-96.52ZM526.33,951.16c-21.28,0-38.31-17.02-38.31-38.31s17.03-38.3,38.31-38.3,38.31,17.02,38.31,38.3-17.03,38.31-38.31,38.31Z"/>
    <path class="cls-7" d="M1299.11,732.94c-37.63,4.93-70.13,26.33-90,56.64-13.08,19.95-20.7,43.75-20.7,69.26v100.75c0,20.93-17.73,38.3-38.31,38.3h-81.99v88.68h81.99c69.88,0,127-56.76,127-126.99v-100.75c0-20.57,17.73-38.31,38.66-38.31h78.71v-88.67h-78.71c-5.64,0-11.2.37-16.65,1.09Z"/>
    <path class="cls-7" d="M754.08,808.65c.14-10.58.26-21.16.08-31.74-.13-7.52-.41-15.04-.97-22.54-.88-11.8-2.59-23.97-8.86-33.99-6.27-10.03-18.23-17.36-29.8-14.87-9.12,1.97-16.19,9.58-19.96,18.11-3.77,8.53-4.76,17.99-5.7,27.27-.21,2.11-.42,4.21-.64,6.32-5.01,49.43-9.78,98.61-14.64,147.88,25.02,16.31,51.45,33.46,76.04,49.39,3.2-49.18,3.82-97.5,4.45-145.82Z"/>
    <path class="cls-7" d="M861.88,1173.83c-3.78-6.19-5.31-12.92-5.48-19.83-15.11-11.25-19.67-30.86-22.46-49.19-2.27-14.88-3.98-29.87-5.38-44.91-4.72-3.35-7.43-5.29-7.43-5.29l-9.82-7.47c-2.95,8.46-6.58,16.68-10.87,24.54,36.69,36.37,55.62,91.75,45.6,142.77-6.68,34.04-5.87,39.79-9.31,46.67,23.91-32.56,38.87-55.74,47.98-72.5-9.37-1.17-18.25-7.28-22.83-14.8Z"/>
    <path class="cls-7" d="M693.76,1031.63c3.94-18.2,11.68-36.02,24.49-49.42-12.99-8.65-30.15-20.08-49.06-32.7-.94,9.39-1.89,18.79-2.85,28.2-1.69,12.23-7.54,35.3-13.02,57.74-.86,3.51-1.7,7-2.52,10.44-2.94,12.3-5.53,23.83-6.99,32.58,6.75-17.39,46-28.61,49.95-46.83Z"/>
    <path class="cls-7" d="M855.95,782.97c-36.87,56.41-72.74,113.51-102.96,173.68,1.04.67,2.08,1.35,3.11,2.02,19.08-7.6,39.68-12.91,57.26-23.5,8.27-4.98,15.87-11.14,24.67-15.12,3.63-1.64,7.57-2.86,11.54-3.41,1.78-.76,3.67-1.19,5.73-1.15,20.19-38.35,40.37-76.69,60.56-115.04.28-.53.56-1.07.84-1.6,4.8-9.13,9.5-18.45,11.56-28.54,2.18-10.68,1.05-22.55-5.53-31.25-1.66-2.2-3.72-4.11-6.03-5.67-6.82-4.6-15.79-6.04-22.97-2.19-4.34,2.33-7.56,6.16-10.42,10.25-.84,1.2-1.65,2.41-2.44,3.62-8.32,12.62-16.65,25.26-24.93,37.92Z"/>
    <path class="cls-4" d="M910.01,1122.04c-.74,11.29-2.13,23.9-11.51,32.12-11.1,9.73-29.17,8.57-40.43,1.02-.57-.38-1.13-.78-1.67-1.19.17,6.91,1.7,13.65,5.48,19.83,4.59,7.51,13.47,13.63,22.83,14.8,3.25.41,6.55.22,9.75-.7,10.53-3.05,16.31-12.51,21.08-21.17,5.92-10.75,11.85-21.5,17.77-32.24-7.29-5.21-15.09-10.77-23.05-16.44-.09,1.32-.17,2.64-.26,3.97Z"/>
    <path class="cls-4" d="M913.9,1062.47l43.04,29.19c5.26-9.57,10.42-19.3,12.65-29.73,2.34-10.99,1.08-23.03-6.23-32.33-7.32-9.3-21.55-14.96-33.79-11.4-5.06,1.47-9.35,2.73-13.03,3.86-.08,1.36-.17,2.71-.26,4.06-.79,12.12-1.58,24.23-2.37,36.35Z"/>
    <path class="cls-1" d="M851.03,1008.1c-2.28,2.52-4.71,4.92-7.27,7.16,4.4,2.83,6.82,4.39,6.82,4.39h0l2.21,1.36,61.12,41.45c.79-12.12,1.58-24.23,2.37-36.35.09-1.35.18-2.71.26-4.06.73-11.79,1.14-23.64-1.46-34.89-2.9-12.54-10.02-24.45-22.06-30.59-4.15-2.12-8.94-3.37-13.88-3.74-1.11,6.75-3.55,13.34-6.27,19.65-5.54,12.84-12.46,25.23-21.83,35.61Z"/>
    <path class="cls-1" d="M856.4,1154c.54.41,1.1.8,1.67,1.19,11.26,7.54,29.33,8.71,40.43-1.02,9.38-8.23,10.78-20.84,11.51-32.12.09-1.32.17-2.64.26-3.97-32.11-22.89-66.84-47.6-81.71-58.17,1.4,15.04,3.11,30.03,5.38,44.91,2.79,18.33,7.35,37.94,22.46,49.19Z"/>
    <path class="cls-6" d="M1005.56,1124.62l-48.61-32.97-43.04-29.19-61.12-41.45-2.21-1.36h0s-2.42-1.56-6.82-4.39c-8,6.99-17.34,12.42-27.57,15.15-1.33,5.66-2.97,11.25-4.88,16.74l9.82,7.47s2.72,1.93,7.43,5.29c14.87,10.57,49.61,35.28,81.71,58.17,7.96,5.67,15.75,11.23,23.05,16.44,24.58,17.55,43.42,31.06,43.41,31.24,24.25,8.23,46.15,15.75,69.72,22.52,1.95.56,4.05,1.22,5.36-.82.91-1.42-.57-3.89-1.63-5.17-15.2-18.48-29.42-39.18-44.62-57.66Z"/>
    <path class="cls-6" d="M545.21,818.84c-11.05-8.56-21.19-2.63-26.13,5.64-5.6,9.36-3.79,21.35,7.27,28.96,26.13,17.98,79.68,53.89,126.98,85.48,5.38,3.6,10.69,7.14,15.86,10.59,18.91,12.62,36.07,24.05,49.06,32.7,1.22-1.27,2.46-2.52,3.77-3.71,9.89-8.98,21.67-14.89,34.09-19.84-1.03-.67-2.07-1.34-3.11-2.02-1.12-.72-2.24-1.45-3.36-2.18-24.59-15.92-51.01-33.07-76.04-49.39-6.89-4.49-13.67-8.92-20.27-13.23-28.22-18.45-53.25-34.95-69.83-46.13-9.68-6.53-36.62-25.59-38.28-26.88Z"/>
    <path class="cls-4" d="M800.44,1071.69c4.28-7.87,7.91-16.09,10.87-24.54,1.92-5.49,3.56-11.08,4.88-16.74,10.23-2.72,19.57-8.16,27.57-15.15,2.57-2.24,5-4.64,7.27-7.16,9.37-10.38,16.28-22.77,21.83-35.61,2.73-6.32,5.16-12.9,6.27-19.65.49-2.97.73-5.96.62-8.98-.35-9.9-5.04-20.13-13.78-24.79-5-2.67-10.73-3.23-16.39-2.44-3.97.55-7.91,1.77-11.54,3.41-8.8,3.98-16.4,10.14-24.67,15.12-17.58,10.6-38.18,15.9-57.26,23.5-12.42,4.95-24.2,10.86-34.09,19.84-1.31,1.19-2.55,2.43-3.77,3.71-12.81,13.4-20.54,31.22-24.49,49.42-3.95,18.23-43.2,29.44-49.95,46.83-.63,1.62-.98,3.28-.99,5.01l.63,26.47c1.97,24.36,7.7,48.27,10.25,72.57,3.63,34.61.73,69.9-8.51,103.46-1.54,5.58-3.15,11.91-.12,16.83,2.1,3.4,5.95,5.25,9.61,6.87,49.61,21.95,114.58-35.84,171.01-31.87,6.13-8.94,9.2-12.97,11.05-16.68,3.43-6.88,2.62-12.62,9.31-46.67,10.02-51.02-8.91-106.4-45.6-142.77Z"/>
  </g>
</svg>