<?xml version="1.0" encoding="UTF-8"?>
<svg id="Artwork" xmlns="http://www.w3.org/2000/svg" viewBox="0 0 779.13 779.13">
  <defs>
    <style>
      .cls-1 {
        fill: #0f191f;
      }

      .cls-2 {
        fill: #1a303c;
      }

      .cls-3 {
        fill: #f6861f;
      }

      .cls-4 {
        fill: #006f86;
      }
    </style>
  </defs>
  <path class="cls-4" d="M348.71,148.84c.28-21.66.56-43.35-1.06-64.95-1.06-14.11-3.1-28.68-10.6-40.67-7.51-12-21.82-20.78-35.65-17.79-10.91,2.35-19.38,11.46-23.88,21.67-4.51,10.21-5.69,21.53-6.82,32.63-6.28,61.69-12.22,123.03-18.28,184.49,29.94,19.52,61.56,40.04,90.98,59.09,3.83-58.84,4.58-116.66,5.32-174.48Z"/>
  <path class="cls-4" d="M477.69,585.79c-4.52-7.4-6.35-15.46-6.56-23.73-18.08-13.46-23.54-36.93-26.87-58.86-2.71-17.8-4.76-35.74-6.44-53.74-5.64-4.01-8.9-6.32-8.9-6.32l-11.76-8.94c-3.53,10.12-7.88,19.96-13,29.37,43.9,43.52,66.55,109.78,54.56,170.83-8,40.73-7.03,47.6-11.14,55.84,28.6-38.96,46.51-66.7,57.41-86.74-11.21-1.4-21.84-8.72-27.32-17.71Z"/>
  <path class="cls-4" d="M419.65,300.21c9.89-5.96,18.99-13.33,29.51-18.09,4.34-1.96,9.06-3.42,13.81-4.08,2.13-.91,4.39-1.42,6.86-1.38,24.15-45.88,48.31-91.76,72.46-137.65,6.08-11.55,12.23-23.29,14.84-36.07,2.61-12.78,1.25-26.98-6.62-37.39-7.87-10.41-23.2-15.56-34.7-9.4-6.72,3.6-11.19,10.22-15.39,16.59-54.31,82.38-108.77,165.02-153.04,253.17,1.26.81,2.51,1.62,3.75,2.43,22.84-9.09,47.48-15.44,68.51-28.12Z"/>
  <path class="cls-4" d="M276.53,415.64c4.72-21.77,13.98-43.1,29.3-59.13-15.54-10.35-36.07-24.03-58.7-39.13-1.13,11.24-2.26,22.48-3.41,33.74-3.46,25.14-21.63,88.5-26.96,120.57,8.06-20.82,55.04-34.24,59.77-56.05Z"/>
  <path class="cls-2" d="M535.29,523.81c-.88,13.5-2.55,28.59-13.78,38.44-13.28,11.65-34.9,10.25-48.37,1.22-.69-.46-1.35-.93-2-1.42.2,8.27,2.04,16.33,6.56,23.73,5.49,8.99,16.11,16.3,27.32,17.71,3.88.49,7.84.27,11.67-.84,12.59-3.65,19.52-14.97,25.23-25.33,7.09-12.86,14.18-25.72,21.26-38.58-8.73-6.23-18.05-12.88-27.57-19.67-.1,1.58-.21,3.16-.31,4.74Z"/>
  <path class="cls-2" d="M539.94,452.53l51.5,34.92c6.3-11.45,12.47-23.09,15.13-35.57,2.8-13.15,1.3-27.56-7.46-38.69s-25.79-17.9-40.43-13.64c-6.06,1.76-11.19,3.27-15.59,4.62-.1,1.62-.2,3.24-.31,4.86-.95,14.5-1.89,28.99-2.84,43.49Z"/>
  <path class="cls-1" d="M464.71,387.49c-2.72,3.02-5.63,5.89-8.7,8.57,5.26,3.39,8.16,5.25,8.16,5.25h0l2.64,1.63,73.13,49.6c.95-14.5,1.89-28.99,2.84-43.49.11-1.62.21-3.24.31-4.86.87-14.11,1.37-28.29-1.74-41.75-3.47-15-11.99-29.25-26.4-36.6-4.97-2.53-10.7-4.06-16.61-4.5-1.33,8.09-4.24,15.98-7.51,23.54-6.63,15.36-14.91,30.18-26.12,42.61Z"/>
  <path class="cls-1" d="M471.14,562.06c.65.49,1.32.96,2,1.42,13.47,9.03,35.09,10.42,48.37-1.22,11.23-9.85,12.89-24.93,13.78-38.44.1-1.58.21-3.16.31-4.74-38.41-27.39-79.98-56.95-97.77-69.6,1.67,18,3.72,35.93,6.44,53.74,3.34,21.93,8.8,45.39,26.87,58.86Z"/>
  <path class="cls-3" d="M702.99,595.9c-18.19-22.11-35.2-46.88-53.38-68.99l-58.17-39.45-51.5-34.92-73.13-49.6-2.64-1.63h0s-2.9-1.86-8.16-5.25c-9.57,8.36-20.75,14.87-32.99,18.12-1.59,6.77-3.55,13.46-5.84,20.03l11.76,8.94s3.25,2.31,8.9,6.32c17.79,12.65,59.36,42.22,97.77,69.6,9.52,6.79,18.85,13.44,27.57,19.67,29.4,21,51.95,37.17,51.94,37.37,29.02,9.85,55.22,18.85,83.42,26.95,2.33.67,4.85,1.46,6.41-.98,1.09-1.7-.68-4.65-1.95-6.19Z"/>
  <path class="cls-3" d="M310.34,352.07c11.83-10.75,25.93-17.82,40.79-23.74-1.25-.81-2.5-1.62-3.75-2.43-1.33-.86-2.66-1.72-4-2.59-29.42-19.05-61.04-39.57-90.98-59.09-43.44-28.32-83.33-54.52-107.81-71.03-11.58-7.81-43.81-30.62-45.81-32.16-13.22-10.25-25.35-3.15-31.27,6.75-6.7,11.2-4.53,25.55,8.7,34.65,34.83,23.97,110.36,74.53,170.91,114.95,22.63,15.1,43.16,28.78,58.7,39.13,1.45-1.52,2.94-3.01,4.51-4.43Z"/>
  <path class="cls-2" d="M404.18,463.57c5.13-9.41,9.47-19.25,13-29.37,2.29-6.57,4.25-13.25,5.84-20.03,12.24-3.26,23.42-9.77,32.99-18.12,3.07-2.68,5.98-5.55,8.7-8.57,11.21-12.42,19.48-27.25,26.12-42.61,3.27-7.57,6.18-15.45,7.51-23.54.58-3.54.87-7.12.74-10.72-.42-11.84-6.04-24.09-16.49-29.66-5.99-3.19-12.84-3.86-19.61-2.91-4.76.66-9.47,2.12-13.81,4.08-10.52,4.76-19.62,12.13-29.51,18.09-21.04,12.68-45.68,19.03-68.51,28.12-14.86,5.92-28.96,12.99-40.79,23.74-1.57,1.42-3.05,2.91-4.51,4.43-15.32,16.03-24.58,37.36-29.3,59.13-4.73,21.82-51.71,35.24-59.77,56.05-.75,1.93-1.17,3.92-1.18,5.99l.75,31.67c2.36,29.14,9.21,57.75,12.26,86.83,4.34,41.42.87,83.64-10.18,123.79-1.84,6.67-3.77,14.25-.14,20.14,2.51,4.07,7.12,6.28,11.5,8.22,59.36,26.26,137.1-42.89,204.61-38.13,7.33-10.7,11.01-15.52,13.22-19.95,4.11-8.23,3.14-15.11,11.14-55.84,11.98-61.04-10.66-127.31-54.56-170.83Z"/>
</svg>